# xmcd CD database file generated by Grip 3.3.0
# 
# Track frame offsets:
#       150
#       16870
#       36270
#       69782
#       87510
#       102712
#       131270
#       149175
#       172942
#       198652
# 
# Disc length: 2839 seconds
# 
# Revision: 2
# Processed by: cddbd v1.5.1PL0 Copyright (c) Steve Scherf et al.
# Submitted via: Grip 3.3.0
# 
DISCID=8c0b150a
DTITLE=Dana Gillespie and Joachim Palden - Boogie Woogie Nights
DYEAR=1990
DGENRE=Blues
TTITLE0=My Man Stands Out
TTITLE1=Boogie Woogie For Spann
TTITLE2=St. Louis Blues
TTITLE3=Blues Train
TTITLE4=One Track Mind
TTITLE5=Empty Bed Blues
TTITLE6=I Want You To Be My Baby
TTITLE7=Cry To Me
TTITLE8=No One
TTITLE9=You're Moving Me
EXTD=
EXTT0=
EXTT1=
EXTT2=
EXTT3=
EXTT4=
EXTT5=
EXTT6=
EXTT7=
EXTT8=
EXTT9=
PLAYORDER=
